<svg width="433.121" height="414.213" version="1.2" xml:space="preserve" xmlns="http://www.w3.org/2000/svg"><defs><filter style="color-interpolation-filters:sRGB" id="b" x="-.013" y="-.017" width="1.026" height="1.033"><feGaussianBlur stdDeviation="1.327"/></filter><filter style="color-interpolation-filters:sRGB" id="a" x="-.019" y="-.025" width="1.039" height="1.051"><feGaussianBlur stdDeviation="1.911"/></filter><filter style="color-interpolation-filters:sRGB" id="c" x="-.022" y="-.024" width="1.043" height="1.048"><feGaussianBlur stdDeviation="1.719"/></filter><filter style="color-interpolation-filters:sRGB" id="d" x="-.013" y="-.015" width="1.027" height="1.03"><feGaussianBlur stdDeviation="1.194"/></filter></defs><g style="image-rendering:auto"><g transform="translate(-34.496 8.676)" style="opacity:1;mix-blend-mode:lighten;stroke-width:2.51339;stroke-dasharray:none;filter:url(#a)"><g class="beak-scream, scream" style="stroke-width:2.51339;stroke-dasharray:none" fill="none"><path style="display:inline;fill:#000;fill-opacity:0;stroke:#f6e795;stroke-width:2.51339;stroke-linecap:square;stroke-linejoin:round;stroke-miterlimit:4;stroke-dasharray:none;stroke-opacity:.933333" d="M249.502 127.109c1.15-1.074 2.3-2.147 3.537-3.116 1.237-.968 2.56-1.83 3.863-2.482 1.304-.652 2.589-1.093 3.993-1.454 1.403-.36 2.926-.64 4.091-.83 1.165-.19 1.972-.29 2.875-.322.904-.031 1.904.005 2.618.206.714.2 1.142.562 1.367.782.224.22.246.295.269.372.208.517.416 1.036.366 1.745-.05.71-.357 1.61-.884 2.626-.527 1.016-1.275 2.147-2.09 3.22-.815 1.074-1.696 2.09-2.463 2.972a83.718 83.718 0 0 1-2.3 2.57c-.883.939-1.995 2.07-2.752 2.76-.757.69-1.16.94-1.563 1.189"/><path style="display:inline;fill:#000;fill-opacity:0;stroke:#efe08a;stroke-width:2.51339;stroke-linecap:square;stroke-linejoin:round;stroke-miterlimit:4;stroke-dasharray:none;stroke-opacity:1" d="m258.357 153.808 17.34 2.902"/></g><g class="beak, calm" style="stroke-width:2.51339;stroke-dasharray:none" fill="none"><path style="display:inline;mix-blend-mode:lighten;fill:#000;fill-opacity:0;stroke:#f6e795;stroke-width:2.51339;stroke-linecap:square;stroke-linejoin:round;stroke-miterlimit:4;stroke-dasharray:none;stroke-opacity:.933333" d="M251.104 131.742c1.537-.337 3.074-.674 4.632-.876 1.557-.203 3.135-.27 4.59-.166 1.453.104 2.783.38 4.175.785 1.391.406 2.844.942 3.943 1.372 1.099.43 1.844.755 2.637 1.189.794.433 1.635.975 2.147 1.511.513.536.696 1.066.777 1.37.082.303.062.38.042.457-.085.55-.17 1.103-.575 1.688-.404.584-1.128 1.203-2.1 1.808-.97.606-2.19 1.197-3.439 1.706-1.248.508-2.525.932-3.634 1.3-1.11.368-2.051.678-3.289 1.037-1.238.358-2.77.765-3.774.972-1.003.208-1.477.217-1.95.226"/><path style="display:inline;mix-blend-mode:lighten;fill:#000;fill-opacity:0;stroke:#efe08a;stroke-width:2.51339;stroke-linecap:square;stroke-linejoin:round;stroke-miterlimit:4;stroke-dasharray:none;stroke-opacity:1" d="m253.892 150.66 17.427 2.321"/></g><g style="stroke-width:2.51339;stroke-dasharray:none" fill="none"><path style="fill:#000;fill-opacity:0;stroke:#d84d00;stroke-width:2.51339;stroke-linecap:round;stroke-linejoin:round;stroke-miterlimit:4;stroke-dasharray:none;stroke-opacity:1" d="M167.396 120.38c-1.262.619-2.525 1.237-3.528 2.213-1.004.977-1.748 2.311-2.065 3.52-.318 1.21-.21 2.295.062 3.488.271 1.193.705 2.495 1.573 3.769s2.17 2.521 3.23 3.378c1.06.856 1.88 1.321 2.938 1.755 1.058.434 2.352.836 3.38.982 1.026.147 1.785.038 2.544-.07M181.955 121.52c-.677-.893-1.355-1.788-2.134-3.035-.78-1.247-1.66-2.847-2.15-4.365-.488-1.519-.582-2.956-.48-4.339.1-1.383.399-2.711.778-3.782a9.676 9.676 0 0 1 1.451-2.698c.61-.814 1.37-1.627 2.237-2.346.868-.718 1.844-1.342 2.875-1.749 1.03-.406 2.115-.596 3.376-.623 1.26-.027 2.697.108 4.053.393 1.356.285 2.63.719 3.647 1.123 1.017.403 1.776.777 2.237.452.46-.325.622-1.35.785-2.296.162-.946.325-1.813.596-2.722.271-.908.65-1.857 1.112-2.766a14.368 14.368 0 0 1 1.703-2.633c.7-.858 1.56-1.705 2.518-2.304.958-.6 2.016-.953 2.93-1.188a13.64 13.64 0 0 1 2.49-.412c.804-.06 1.64-.06 2.446.044.806.103 1.582.309 2.39.586.81.277 1.65.624 2.423 1.137.773.513 1.478 1.19 2.101 1.882.624.692 1.166 1.397 1.79 2.25a91.79 91.79 0 0 1 2.07 2.965 234.569 234.569 0 0 1 2.302 3.527M234.433 86.618c1.42 0 2.838 0 4.008.173s2.09.518 2.856 1.016c.767.5 1.38 1.151 1.783 2.129.402.978.593 2.281.632 3.547.038 1.265-.077 2.492-.269 4.006-.192 1.515-.46 3.317-.728 5.118"/><path style="fill:#000;fill-opacity:0;stroke:#e05000;stroke-width:2.51339;stroke-linecap:round;stroke-linejoin:round;stroke-miterlimit:4;stroke-dasharray:none;stroke-opacity:1" d="M269.801 164.427a10.86 10.86 0 0 0-.284 2.196c-.027 1.01.098 2.057.61 2.928.532.907 1.421 1.532 2.237 2.196.754.615 1.472 1.293 1.992 2.115.897 1.418 1.138 3.222.692 4.84a6.38 6.38 0 0 1-3.296 3.977 6.38 6.38 0 0 1-5.164.171"/></g><g style="stroke-width:2.51339;stroke-dasharray:none" fill="none"><path style="fill:#000;fill-opacity:0;stroke:#fff;stroke-width:2.51339;stroke-linecap:round;stroke-linejoin:round;stroke-miterlimit:4;stroke-dasharray:none;stroke-opacity:1" d="M245.52 124.87s-1.866-2.045-2.875-2.991c-.824-.772-1.647-1.561-2.588-2.186-1.058-.701-2.227-1.225-3.394-1.725-1.401-.6-2.838-1.138-4.313-1.524a37.569 37.569 0 0 0-6.097-1.064c-2.792-.255-5.612-.242-8.412-.078-2.32.136-4.663.309-6.916.878-1.753.443-3.408 1.222-5.06 1.956-1.494.663-2.974 1.368-4.376 2.205-1.544.922-3.05 1.927-4.425 3.086-1.497 1.263-2.825 2.72-4.127 4.183-1.122 1.261-2.228 2.549-3.166 3.952-1.264 1.892-2.424 3.877-3.288 5.982-.791 1.925-1.213 3.985-1.705 6.008-.509 2.093-.968 4.203-1.286 6.334-.27 1.81-.5 3.637-.529 5.468-.03 1.952.127 3.91.38 5.845.298 2.276.826 4.516 1.337 6.753.946 4.143 2.063 8.246 3.196 12.342.724 2.62 1.704 5.17 2.3 7.822.46 2.045.715 4.133.978 6.212.504 3.974 1.049 7.958 1.15 11.963.183 7.214-.977 21.626-.977 21.626M255.368 161.273c-.537 2.34-1.074 4.679-1.342 7.593-.268 2.914-.268 6.403.038 9.874.307 3.47.92 6.92 2.397 10.717 1.477 3.796 3.816 7.937 6.596 12.078 2.78 4.141 6 8.282 9.22 12.422"/></g><g class="flame, scream" style="stroke-width:2.51339;stroke-dasharray:none" fill="none"><path style="fill:#000;fill-opacity:0;stroke:#d84d00;stroke-width:2.51339;stroke-linecap:round;stroke-linejoin:round;stroke-miterlimit:4;stroke-dasharray:none;stroke-opacity:1" d="M280.782 130.793c4.5-5.26 9.002-10.52 12.011-14.315 3.01-3.796 4.528-6.128 6.236-9.219 1.708-3.09 3.606-6.94 5.423-10.872 1.816-3.931 3.551-7.944 5.802-12.228 2.25-4.284 5.016-8.839 7.375-12.716 2.358-3.877 4.31-7.076 5.72-9.544 1.41-2.467 2.278-4.202 2.956-5.856.677-1.654 1.165-3.226 1.518-4.31.352-1.085.57-1.682.813-2.522.244-.84.516-1.925.787-2.901.27-.976.542-1.844.813-2.522.271-.678.542-1.166 1.031-1.22.489-.054 1.194.325 1.573 1.329.379 1.003.433 2.63.568 5.477.136 2.847.353 6.914.326 10.032-.027 3.117-.299 5.286-.732 7.211-.434 1.925-1.03 3.606-1.302 4.8-.27 1.193-.217 1.898.326 2.222.543.325 1.573.271 2.847-.678 1.274-.949 2.792-2.792 4.283-5.016 1.491-2.223 2.956-4.826 4.501-7.157a58.115 58.115 0 0 1 4.614-6.043 49.732 49.732 0 0 1 4.13-4.202 67.59 67.59 0 0 1 4.923-4.11c1.879-1.418 4.026-2.875 6.365-4.409 2.339-1.533 4.87-3.144 6.979-4.294 2.109-1.15 3.796-1.84 5.406-2.684 1.61-.844 3.144-1.84 5.212-3.152 2.067-1.312 4.669-2.938 6.85-4.565 2.183-1.626 3.945-3.253 5.436-4.757a64.454 64.454 0 0 0 3.796-4.19 82.589 82.589 0 0 0 2.928-3.727c.895-1.207 1.735-2.4 2.318-3.457s.908-1.979 1.247-2.616c.34-.638.692-.99.977-.583.285.407.501 1.573.664 3.05.163 1.478.271 3.268.081 5.138-.19 1.871-.678 3.823-1.45 5.856-.773 2.034-1.83 4.149-2.97 5.856-1.138 1.708-2.358 3.01-3.307 4.27-.95 1.262-1.627 2.482-2.007 3.756-.379 1.275-.46 2.603.869 2.901 1.329.298 4.067-.434 6.846-1.519 2.779-1.084 5.598-2.521 8.052-3.931 2.454-1.41 4.541-2.793 6.887-4.514 2.345-1.722 4.948-3.783 7.402-5.626a246.526 246.526 0 0 1 6.75-4.867c1.994-1.396 3.675-2.562 5.193-3.904 1.518-1.342 2.874-2.86 4.094-4.338 1.22-1.478 2.304-2.915 3.063-4.406.76-1.49 1.193-3.036 1.803-4.351.61-1.316 1.397-2.4 2.061-3.173.664-.773 1.207-1.234 1.912-.976.705.259 1.573 1.235 1.993 2.306.42 1.07.392 2.236.162 4.365-.23 2.128-.664 5.219-1.396 8.038-.733 2.82-1.763 5.369-3.16 8.297-1.395 2.928-3.158 6.236-4.988 9.082-1.83 2.847-3.728 5.233-5.233 7.158a145.422 145.422 0 0 0-3.917 5.206c-1.302 1.816-2.793 3.985-3.823 5.409-1.03 1.423-1.6 2.101-.759 2.467.841.366 3.091.42 5.138-.163 2.047-.583 3.89-1.803 6.33-3.321 2.44-1.519 5.477-3.335 8.094-5.097 2.616-1.763 4.812-3.47 6.737-4.88 1.925-1.41 3.58-2.522 4.596-2.956 1.018-.433 1.397-.189 1.139 1.126s-1.153 3.7-2.44 6.52c-1.289 2.82-2.97 6.074-4.596 9.083-1.627 3.01-3.2 5.775-5.07 8.378-1.871 2.603-4.04 5.043-5.952 7.063-1.911 2.02-3.565 3.62-5.11 5.232-1.546 1.614-2.983 3.24-4.786 4.786-1.803 1.545-3.972 3.01-5.422 4.257-1.451 1.247-2.183 2.277-2.685 3.498-.501 1.22-.773 2.63-.908 3.511-.136.882-.136 1.234-.136 1.585M287.777 142.18c3.471-1.572 6.942-3.145 15.51-6.67 8.567-3.524 22.232-9.001 33.105-12.499 10.872-3.497 18.952-5.015 26.95-5.991 7.999-.976 15.915-1.41 21.338-2.061 5.422-.65 8.35-1.518 11.496-2.522 3.145-1.003 6.507-2.142 11.17-2.82 4.664-.677 10.629-.894 14.695-2.168 4.067-1.275 6.236-3.606 6.345-4.8.109-1.192-1.843-1.246-3.552-1.11-1.708.135-3.172.46-4.609.568-1.437.109-2.847 0-3.01-.786-.163-.786.921-2.25 2.277-3.47 1.355-1.218 2.98-2.192 4.606-3.166"/><path style="fill:#000;fill-opacity:0;stroke:#d14a00;stroke-width:2.51339;stroke-linecap:round;stroke-linejoin:round;stroke-miterlimit:4;stroke-dasharray:none;stroke-opacity:1" d="M314.944 97.444c2.55-2.115 5.098-4.23 7.565-5.775 2.468-1.546 4.854-2.522 7.864-3.2 3.01-.677 6.642-1.057 10.221-1.192 3.58-.136 7.104-.027 9.788-.109 2.684-.081 4.528-.352 6.398-1.491 1.87-1.139 3.769-3.145 5.53-5.016 1.763-1.87 3.39-3.606 4.53-4.446 1.139-.84 1.79-.787 1.545.271-.245 1.058-1.384 3.118-2.224 5.043a26.899 26.899 0 0 0-1.708 5.288c-.326 1.572-.434 2.928.678 3.524 1.112.596 3.444.433 6.1-.543 2.657-.976 5.64-2.765 8.568-5.178s5.802-5.45 8.46-8.026c2.656-2.576 5.096-4.69 7.4-6.832 2.306-2.142 4.475-4.311 6.237-5.613 1.763-1.301 3.118-1.735 3.687-.894.57.841.353 2.956-1.328 5.64-1.681 2.683-4.826 5.937-7.212 8.377-2.386 2.44-4.013 4.067-4.935 5.776-.922 1.708-1.139 3.498-.243 5.314.895 1.817 2.901 3.66 5.477 4.202 2.575.542 5.72-.217 8.052-1.735 2.331-1.519 3.85-3.796 5.286-5.91 1.437-2.116 2.793-4.068 3.742-5.18.95-1.112 1.492-1.383 1.058 1.22-.435 2.604-1.844 8.08-3.254 13.557"/></g><g class="eye-scream, scream" style="stroke-width:2.51339;stroke-dasharray:none" fill="none"><path style="fill:#000;fill-opacity:0;stroke:#faeb96;stroke-width:2.51339;stroke-linecap:round;stroke-linejoin:round;stroke-miterlimit:4;stroke-dasharray:none;stroke-opacity:1" d="m219.133 144.018 14.15 6.442M229.486 140.913l-6.902 12.308" transform="translate(-.115 .92)"/></g><g style="stroke-width:2.51339;stroke-dasharray:none"><circle style="opacity:1;mix-blend-mode:lighten;fill:#000;fill-opacity:0;stroke:#faeb96;stroke-width:2.51339;stroke-linecap:round;stroke-linejoin:round;stroke-miterlimit:4;stroke-dasharray:none;stroke-opacity:1" cx="225.834" cy="148.073" fill="none" class="eye, calm" r="11.236"/></g></g><g transform="translate(-34.496 8.676)" style="opacity:1;mix-blend-mode:lighten;filter:url(#b)"><g class="beak-scream, scream" fill="none"><path style="display:inline;fill:#000;fill-opacity:0;stroke:#f6e795;stroke-width:1.74614;stroke-linecap:square;stroke-linejoin:round;stroke-miterlimit:4;stroke-dasharray:none;stroke-opacity:.933333" d="M249.502 127.109c1.15-1.074 2.3-2.147 3.537-3.116 1.237-.968 2.56-1.83 3.863-2.482 1.304-.652 2.589-1.093 3.993-1.454 1.403-.36 2.926-.64 4.091-.83 1.165-.19 1.972-.29 2.875-.322.904-.031 1.904.005 2.618.206.714.2 1.142.562 1.367.782.224.22.246.295.269.372.208.517.416 1.036.366 1.745-.05.71-.357 1.61-.884 2.626-.527 1.016-1.275 2.147-2.09 3.22-.815 1.074-1.696 2.09-2.463 2.972a83.718 83.718 0 0 1-2.3 2.57c-.883.939-1.995 2.07-2.752 2.76-.757.69-1.16.94-1.563 1.189"/><path style="display:inline;fill:#000;fill-opacity:0;stroke:#efe08a;stroke-width:1.74614;stroke-linecap:square;stroke-linejoin:round;stroke-miterlimit:4;stroke-dasharray:none;stroke-opacity:1" d="m258.357 153.808 17.34 2.902"/></g><g class="beak, calm" fill="none"><path style="display:inline;mix-blend-mode:lighten;fill:#000;fill-opacity:0;stroke:#f6e795;stroke-width:1.74614;stroke-linecap:square;stroke-linejoin:round;stroke-miterlimit:4;stroke-dasharray:none;stroke-opacity:.933333" d="M251.104 131.742c1.537-.337 3.074-.674 4.632-.876 1.557-.203 3.135-.27 4.59-.166 1.453.104 2.783.38 4.175.785 1.391.406 2.844.942 3.943 1.372 1.099.43 1.844.755 2.637 1.189.794.433 1.635.975 2.147 1.511.513.536.696 1.066.777 1.37.082.303.062.38.042.457-.085.55-.17 1.103-.575 1.688-.404.584-1.128 1.203-2.1 1.808-.97.606-2.19 1.197-3.439 1.706-1.248.508-2.525.932-3.634 1.3-1.11.368-2.051.678-3.289 1.037-1.238.358-2.77.765-3.774.972-1.003.208-1.477.217-1.95.226"/><path style="display:inline;mix-blend-mode:lighten;fill:#000;fill-opacity:0;stroke:#efe08a;stroke-width:1.74614;stroke-linecap:square;stroke-linejoin:round;stroke-miterlimit:4;stroke-dasharray:none;stroke-opacity:1" d="m253.892 150.66 17.427 2.321"/></g><g fill="none"><path style="fill:#000;fill-opacity:0;stroke:#d84d00;stroke-width:1.36819;stroke-linecap:round;stroke-linejoin:round;stroke-miterlimit:4;stroke-opacity:1" d="M167.396 120.38c-1.262.619-2.525 1.237-3.528 2.213-1.004.977-1.748 2.311-2.065 3.52-.318 1.21-.21 2.295.062 3.488.271 1.193.705 2.495 1.573 3.769s2.17 2.521 3.23 3.378c1.06.856 1.88 1.321 2.938 1.755 1.058.434 2.352.836 3.38.982 1.026.147 1.785.038 2.544-.07M181.955 121.52c-.677-.893-1.355-1.788-2.134-3.035-.78-1.247-1.66-2.847-2.15-4.365-.488-1.519-.582-2.956-.48-4.339.1-1.383.399-2.711.778-3.782a9.676 9.676 0 0 1 1.451-2.698c.61-.814 1.37-1.627 2.237-2.346.868-.718 1.844-1.342 2.875-1.749 1.03-.406 2.115-.596 3.376-.623 1.26-.027 2.697.108 4.053.393 1.356.285 2.63.719 3.647 1.123 1.017.403 1.776.777 2.237.452.46-.325.622-1.35.785-2.296.162-.946.325-1.813.596-2.722.271-.908.65-1.857 1.112-2.766a14.368 14.368 0 0 1 1.703-2.633c.7-.858 1.56-1.705 2.518-2.304.958-.6 2.016-.953 2.93-1.188a13.64 13.64 0 0 1 2.49-.412c.804-.06 1.64-.06 2.446.044.806.103 1.582.309 2.39.586.81.277 1.65.624 2.423 1.137.773.513 1.478 1.19 2.101 1.882.624.692 1.166 1.397 1.79 2.25a91.79 91.79 0 0 1 2.07 2.965 234.569 234.569 0 0 1 2.302 3.527M234.433 86.618c1.42 0 2.838 0 4.008.173s2.09.518 2.856 1.016c.767.5 1.38 1.151 1.783 2.129.402.978.593 2.281.632 3.547.038 1.265-.077 2.492-.269 4.006-.192 1.515-.46 3.317-.728 5.118"/><path style="fill:#000;fill-opacity:0;stroke:#e05000;stroke-width:1.74614;stroke-linecap:round;stroke-linejoin:round;stroke-miterlimit:4;stroke-dasharray:none;stroke-opacity:1" d="M269.801 164.427a10.86 10.86 0 0 0-.284 2.196c-.027 1.01.098 2.057.61 2.928.532.907 1.421 1.532 2.237 2.196.754.615 1.472 1.293 1.992 2.115.897 1.418 1.138 3.222.692 4.84a6.38 6.38 0 0 1-3.296 3.977 6.38 6.38 0 0 1-5.164.171"/></g><g fill="none"><path style="fill:#000;fill-opacity:0;stroke:#fff;stroke-width:1.36819;stroke-linecap:round;stroke-linejoin:round;stroke-miterlimit:4;stroke-opacity:1" d="M245.52 124.87s-1.866-2.045-2.875-2.991c-.824-.772-1.647-1.561-2.588-2.186-1.058-.701-2.227-1.225-3.394-1.725-1.401-.6-2.838-1.138-4.313-1.524a37.569 37.569 0 0 0-6.097-1.064c-2.792-.255-5.612-.242-8.412-.078-2.32.136-4.663.309-6.916.878-1.753.443-3.408 1.222-5.06 1.956-1.494.663-2.974 1.368-4.376 2.205-1.544.922-3.05 1.927-4.425 3.086-1.497 1.263-2.825 2.72-4.127 4.183-1.122 1.261-2.228 2.549-3.166 3.952-1.264 1.892-2.424 3.877-3.288 5.982-.791 1.925-1.213 3.985-1.705 6.008-.509 2.093-.968 4.203-1.286 6.334-.27 1.81-.5 3.637-.529 5.468-.03 1.952.127 3.91.38 5.845.298 2.276.826 4.516 1.337 6.753.946 4.143 2.063 8.246 3.196 12.342.724 2.62 1.704 5.17 2.3 7.822.46 2.045.715 4.133.978 6.212.504 3.974 1.049 7.958 1.15 11.963.183 7.214-.977 21.626-.977 21.626"/><path style="fill:#000;fill-opacity:0;stroke:#fff;stroke-width:1.74614;stroke-linecap:round;stroke-linejoin:round;stroke-miterlimit:4;stroke-dasharray:none;stroke-opacity:1" d="M255.368 161.273c-.537 2.34-1.074 4.679-1.342 7.593-.268 2.914-.268 6.403.038 9.874.307 3.47.92 6.92 2.397 10.717 1.477 3.796 3.816 7.937 6.596 12.078 2.78 4.141 6 8.282 9.22 12.422"/></g><g class="flame, scream" fill="none"><path style="fill:#000;fill-opacity:0;stroke:#d84d00;stroke-width:1.36819;stroke-linecap:round;stroke-linejoin:round;stroke-miterlimit:4;stroke-dasharray:none;stroke-opacity:1" d="M280.782 130.793c4.5-5.26 9.002-10.52 12.011-14.315 3.01-3.796 4.528-6.128 6.236-9.219 1.708-3.09 3.606-6.94 5.423-10.872 1.816-3.931 3.551-7.944 5.802-12.228 2.25-4.284 5.016-8.839 7.375-12.716 2.358-3.877 4.31-7.076 5.72-9.544 1.41-2.467 2.278-4.202 2.956-5.856.677-1.654 1.165-3.226 1.518-4.31.352-1.085.57-1.682.813-2.522.244-.84.516-1.925.787-2.901.27-.976.542-1.844.813-2.522.271-.678.542-1.166 1.031-1.22.489-.054 1.194.325 1.573 1.329.379 1.003.433 2.63.568 5.477.136 2.847.353 6.914.326 10.032-.027 3.117-.299 5.286-.732 7.211-.434 1.925-1.03 3.606-1.302 4.8-.27 1.193-.217 1.898.326 2.222.543.325 1.573.271 2.847-.678 1.274-.949 2.792-2.792 4.283-5.016 1.491-2.223 2.956-4.826 4.501-7.157a58.115 58.115 0 0 1 4.614-6.043 49.732 49.732 0 0 1 4.13-4.202 67.59 67.59 0 0 1 4.923-4.11c1.879-1.418 4.026-2.875 6.365-4.409 2.339-1.533 4.87-3.144 6.979-4.294 2.109-1.15 3.796-1.84 5.406-2.684 1.61-.844 3.144-1.84 5.212-3.152 2.067-1.312 4.669-2.938 6.85-4.565 2.183-1.626 3.945-3.253 5.436-4.757a64.454 64.454 0 0 0 3.796-4.19 82.589 82.589 0 0 0 2.928-3.727c.895-1.207 1.735-2.4 2.318-3.457s.908-1.979 1.247-2.616c.34-.638.692-.99.977-.583.285.407.501 1.573.664 3.05.163 1.478.271 3.268.081 5.138-.19 1.871-.678 3.823-1.45 5.856-.773 2.034-1.83 4.149-2.97 5.856-1.138 1.708-2.358 3.01-3.307 4.27-.95 1.262-1.627 2.482-2.007 3.756-.379 1.275-.46 2.603.869 2.901 1.329.298 4.067-.434 6.846-1.519 2.779-1.084 5.598-2.521 8.052-3.931 2.454-1.41 4.541-2.793 6.887-4.514 2.345-1.722 4.948-3.783 7.402-5.626a246.526 246.526 0 0 1 6.75-4.867c1.994-1.396 3.675-2.562 5.193-3.904 1.518-1.342 2.874-2.86 4.094-4.338 1.22-1.478 2.304-2.915 3.063-4.406.76-1.49 1.193-3.036 1.803-4.351.61-1.316 1.397-2.4 2.061-3.173.664-.773 1.207-1.234 1.912-.976.705.259 1.573 1.235 1.993 2.306.42 1.07.392 2.236.162 4.365-.23 2.128-.664 5.219-1.396 8.038-.733 2.82-1.763 5.369-3.16 8.297-1.395 2.928-3.158 6.236-4.988 9.082-1.83 2.847-3.728 5.233-5.233 7.158a145.422 145.422 0 0 0-3.917 5.206c-1.302 1.816-2.793 3.985-3.823 5.409-1.03 1.423-1.6 2.101-.759 2.467.841.366 3.091.42 5.138-.163 2.047-.583 3.89-1.803 6.33-3.321 2.44-1.519 5.477-3.335 8.094-5.097 2.616-1.763 4.812-3.47 6.737-4.88 1.925-1.41 3.58-2.522 4.596-2.956 1.018-.433 1.397-.189 1.139 1.126s-1.153 3.7-2.44 6.52c-1.289 2.82-2.97 6.074-4.596 9.083-1.627 3.01-3.2 5.775-5.07 8.378-1.871 2.603-4.04 5.043-5.952 7.063-1.911 2.02-3.565 3.62-5.11 5.232-1.546 1.614-2.983 3.24-4.786 4.786-1.803 1.545-3.972 3.01-5.422 4.257-1.451 1.247-2.183 2.277-2.685 3.498-.501 1.22-.773 2.63-.908 3.511-.136.882-.136 1.234-.136 1.585M287.777 142.18c3.471-1.572 6.942-3.145 15.51-6.67 8.567-3.524 22.232-9.001 33.105-12.499 10.872-3.497 18.952-5.015 26.95-5.991 7.999-.976 15.915-1.41 21.338-2.061 5.422-.65 8.35-1.518 11.496-2.522 3.145-1.003 6.507-2.142 11.17-2.82 4.664-.677 10.629-.894 14.695-2.168 4.067-1.275 6.236-3.606 6.345-4.8.109-1.192-1.843-1.246-3.552-1.11-1.708.135-3.172.46-4.609.568-1.437.109-2.847 0-3.01-.786-.163-.786.921-2.25 2.277-3.47 1.355-1.218 2.98-2.192 4.606-3.166"/><path style="fill:#000;fill-opacity:0;stroke:#d14a00;stroke-width:1.36819;stroke-linecap:round;stroke-linejoin:round;stroke-miterlimit:4;stroke-dasharray:none;stroke-opacity:1" d="M314.944 97.444c2.55-2.115 5.098-4.23 7.565-5.775 2.468-1.546 4.854-2.522 7.864-3.2 3.01-.677 6.642-1.057 10.221-1.192 3.58-.136 7.104-.027 9.788-.109 2.684-.081 4.528-.352 6.398-1.491 1.87-1.139 3.769-3.145 5.53-5.016 1.763-1.87 3.39-3.606 4.53-4.446 1.139-.84 1.79-.787 1.545.271-.245 1.058-1.384 3.118-2.224 5.043a26.899 26.899 0 0 0-1.708 5.288c-.326 1.572-.434 2.928.678 3.524 1.112.596 3.444.433 6.1-.543 2.657-.976 5.64-2.765 8.568-5.178s5.802-5.45 8.46-8.026c2.656-2.576 5.096-4.69 7.4-6.832 2.306-2.142 4.475-4.311 6.237-5.613 1.763-1.301 3.118-1.735 3.687-.894.57.841.353 2.956-1.328 5.64-1.681 2.683-4.826 5.937-7.212 8.377-2.386 2.44-4.013 4.067-4.935 5.776-.922 1.708-1.139 3.498-.243 5.314.895 1.817 2.901 3.66 5.477 4.202 2.575.542 5.72-.217 8.052-1.735 2.331-1.519 3.85-3.796 5.286-5.91 1.437-2.116 2.793-4.068 3.742-5.18.95-1.112 1.492-1.383 1.058 1.22-.435 2.604-1.844 8.08-3.254 13.557"/></g><g class="eye-scream, scream" fill="none"><path style="fill:#000;fill-opacity:0;stroke:#faeb96;stroke-width:1.36819;stroke-linecap:round;stroke-linejoin:round;stroke-miterlimit:4;stroke-dasharray:none;stroke-opacity:1" d="m219.133 144.018 14.15 6.442M229.486 140.913l-6.902 12.308" transform="translate(-.115 .92)"/></g><circle style="opacity:1;mix-blend-mode:lighten;fill:#000;fill-opacity:0;stroke:#faeb96;stroke-width:1.615;stroke-linecap:round;stroke-linejoin:round;stroke-miterlimit:4;stroke-opacity:1" cx="225.834" cy="148.073" fill="none" class="eye, calm" r="11.236"/></g><g style="opacity:1;mix-blend-mode:lighten;stroke-width:1.00157;stroke-dasharray:none"><g class="beak-scream, scream" style="stroke-width:1.00157;stroke-dasharray:none" fill="none"><path style="display:inline;fill:#000;fill-opacity:0;stroke:#f6e795;stroke-width:1.00157;stroke-linecap:square;stroke-linejoin:round;stroke-miterlimit:4;stroke-dasharray:none;stroke-opacity:.933333" d="M249.502 127.109c1.15-1.074 2.3-2.147 3.537-3.116 1.237-.968 2.56-1.83 3.863-2.482 1.304-.652 2.589-1.093 3.993-1.454 1.403-.36 2.926-.64 4.091-.83 1.165-.19 1.972-.29 2.875-.322.904-.031 1.904.005 2.618.206.714.2 1.142.562 1.367.782.224.22.246.295.269.372.208.517.416 1.036.366 1.745-.05.71-.357 1.61-.884 2.626-.527 1.016-1.275 2.147-2.09 3.22-.815 1.074-1.696 2.09-2.463 2.972a83.718 83.718 0 0 1-2.3 2.57c-.883.939-1.995 2.07-2.752 2.76-.757.69-1.16.94-1.563 1.189" transform="translate(-34.496 8.676)"/><path style="display:inline;fill:#000;fill-opacity:0;stroke:#efe08a;stroke-width:1.00157;stroke-linecap:square;stroke-linejoin:round;stroke-miterlimit:4;stroke-dasharray:none;stroke-opacity:1" d="m258.357 153.808 17.34 2.902" transform="translate(-34.496 8.676)"/></g><g class="beak, calm" style="stroke-width:1.00157;stroke-dasharray:none" fill="none"><path style="display:inline;mix-blend-mode:lighten;fill:#000;fill-opacity:0;stroke:#f6e795;stroke-width:1.00157;stroke-linecap:square;stroke-linejoin:round;stroke-miterlimit:4;stroke-dasharray:none;stroke-opacity:.933333" d="M251.104 131.742c1.537-.337 3.074-.674 4.632-.876 1.557-.203 3.135-.27 4.59-.166 1.453.104 2.783.38 4.175.785 1.391.406 2.844.942 3.943 1.372 1.099.43 1.844.755 2.637 1.189.794.433 1.635.975 2.147 1.511.513.536.696 1.066.777 1.37.082.303.062.38.042.457-.085.55-.17 1.103-.575 1.688-.404.584-1.128 1.203-2.1 1.808-.97.606-2.19 1.197-3.439 1.706-1.248.508-2.525.932-3.634 1.3-1.11.368-2.051.678-3.289 1.037-1.238.358-2.77.765-3.774.972-1.003.208-1.477.217-1.95.226" transform="translate(-34.496 8.676)"/><path style="display:inline;mix-blend-mode:lighten;fill:#000;fill-opacity:0;stroke:#efe08a;stroke-width:1.00157;stroke-linecap:square;stroke-linejoin:round;stroke-miterlimit:4;stroke-dasharray:none;stroke-opacity:1" d="m253.892 150.66 17.427 2.321" transform="translate(-34.496 8.676)"/></g><g style="stroke-width:1.00157;stroke-dasharray:none" fill="none"><path style="fill:#000;fill-opacity:0;stroke:#d84d00;stroke-width:1.00157;stroke-linecap:round;stroke-linejoin:round;stroke-miterlimit:4;stroke-dasharray:none;stroke-opacity:1" d="M167.396 120.38c-1.262.619-2.525 1.237-3.528 2.213-1.004.977-1.748 2.311-2.065 3.52-.318 1.21-.21 2.295.062 3.488.271 1.193.705 2.495 1.573 3.769s2.17 2.521 3.23 3.378c1.06.856 1.88 1.321 2.938 1.755 1.058.434 2.352.836 3.38.982 1.026.147 1.785.038 2.544-.07M181.955 121.52c-.677-.893-1.355-1.788-2.134-3.035-.78-1.247-1.66-2.847-2.15-4.365-.488-1.519-.582-2.956-.48-4.339.1-1.383.399-2.711.778-3.782a9.676 9.676 0 0 1 1.451-2.698c.61-.814 1.37-1.627 2.237-2.346.868-.718 1.844-1.342 2.875-1.749 1.03-.406 2.115-.596 3.376-.623 1.26-.027 2.697.108 4.053.393 1.356.285 2.63.719 3.647 1.123 1.017.403 1.776.777 2.237.452.46-.325.622-1.35.785-2.296.162-.946.325-1.813.596-2.722.271-.908.65-1.857 1.112-2.766a14.368 14.368 0 0 1 1.703-2.633c.7-.858 1.56-1.705 2.518-2.304.958-.6 2.016-.953 2.93-1.188a13.64 13.64 0 0 1 2.49-.412c.804-.06 1.64-.06 2.446.044.806.103 1.582.309 2.39.586.81.277 1.65.624 2.423 1.137.773.513 1.478 1.19 2.101 1.882.624.692 1.166 1.397 1.79 2.25a91.79 91.79 0 0 1 2.07 2.965 234.569 234.569 0 0 1 2.302 3.527M234.433 86.618c1.42 0 2.838 0 4.008.173s2.09.518 2.856 1.016c.767.5 1.38 1.151 1.783 2.129.402.978.593 2.281.632 3.547.038 1.265-.077 2.492-.269 4.006-.192 1.515-.46 3.317-.728 5.118" transform="translate(-34.496 8.676)"/><path style="fill:#000;fill-opacity:0;stroke:#e05000;stroke-width:1.00157;stroke-linecap:round;stroke-linejoin:round;stroke-miterlimit:4;stroke-dasharray:none;stroke-opacity:1" d="M269.801 164.427a10.86 10.86 0 0 0-.284 2.196c-.027 1.01.098 2.057.61 2.928.532.907 1.421 1.532 2.237 2.196.754.615 1.472 1.293 1.992 2.115.897 1.418 1.138 3.222.692 4.84a6.38 6.38 0 0 1-3.296 3.977 6.38 6.38 0 0 1-5.164.171" transform="translate(-34.496 8.676)"/></g><g style="stroke-width:1.37953;stroke-dasharray:none" fill="none"><path style="fill:#000;fill-opacity:0;stroke:#fff;stroke-width:1.37953;stroke-linecap:round;stroke-linejoin:round;stroke-miterlimit:4;stroke-dasharray:none;stroke-opacity:1" d="M245.52 124.87s-1.866-2.045-2.875-2.991c-.824-.772-1.647-1.561-2.588-2.186-1.058-.701-2.227-1.225-3.394-1.725-1.401-.6-2.838-1.138-4.313-1.524a37.569 37.569 0 0 0-6.097-1.064c-2.792-.255-5.612-.242-8.412-.078-2.32.136-4.663.309-6.916.878-1.753.443-3.408 1.222-5.06 1.956-1.494.663-2.974 1.368-4.376 2.205-1.544.922-3.05 1.927-4.425 3.086-1.497 1.263-2.825 2.72-4.127 4.183-1.122 1.261-2.228 2.549-3.166 3.952-1.264 1.892-2.424 3.877-3.288 5.982-.791 1.925-1.213 3.985-1.705 6.008-.509 2.093-.968 4.203-1.286 6.334-.27 1.81-.5 3.637-.529 5.468-.03 1.952.127 3.91.38 5.845.298 2.276.826 4.516 1.337 6.753.946 4.143 2.063 8.246 3.196 12.342.724 2.62 1.704 5.17 2.3 7.822.46 2.045.715 4.133.978 6.212.504 3.974 1.049 7.958 1.15 11.963.183 7.214-.977 21.626-.977 21.626M255.368 161.273c-.537 2.34-1.074 4.679-1.342 7.593-.268 2.914-.268 6.403.038 9.874.307 3.47.92 6.92 2.397 10.717 1.477 3.796 3.816 7.937 6.7 12.161 2.884 4.225 6.313 8.532 9.742 12.84" transform="translate(-34.496 8.676)"/></g><g class="flame, scream" style="stroke-width:1.00157;stroke-dasharray:none" fill="none"><path style="fill:#000;fill-opacity:0;stroke:#d84d00;stroke-width:1.00157;stroke-linecap:round;stroke-linejoin:round;stroke-miterlimit:4;stroke-dasharray:none;stroke-opacity:1" d="M280.782 130.793c4.5-5.26 9.002-10.52 12.011-14.315 3.01-3.796 4.528-6.128 6.236-9.219 1.708-3.09 3.606-6.94 5.423-10.872 1.816-3.931 3.551-7.944 5.802-12.228 2.25-4.284 5.016-8.839 7.375-12.716 2.358-3.877 4.31-7.076 5.72-9.544 1.41-2.467 2.278-4.202 2.956-5.856.677-1.654 1.165-3.226 1.518-4.31.352-1.085.57-1.682.813-2.522.244-.84.516-1.925.787-2.901.27-.976.542-1.844.813-2.522.271-.678.542-1.166 1.031-1.22.489-.054 1.194.325 1.573 1.329.379 1.003.433 2.63.568 5.477.136 2.847.353 6.914.326 10.032-.027 3.117-.299 5.286-.732 7.211-.434 1.925-1.03 3.606-1.302 4.8-.27 1.193-.217 1.898.326 2.222.543.325 1.573.271 2.847-.678 1.274-.949 2.792-2.792 4.283-5.016 1.491-2.223 2.956-4.826 4.501-7.157a58.115 58.115 0 0 1 4.614-6.043 49.732 49.732 0 0 1 4.13-4.202 67.59 67.59 0 0 1 4.923-4.11c1.879-1.418 4.026-2.875 6.365-4.409 2.339-1.533 4.87-3.144 6.979-4.294 2.109-1.15 3.796-1.84 5.406-2.684 1.61-.844 3.144-1.84 5.212-3.152 2.067-1.312 4.669-2.938 6.85-4.565 2.183-1.626 3.945-3.253 5.436-4.757a64.454 64.454 0 0 0 3.796-4.19 82.589 82.589 0 0 0 2.928-3.727c.895-1.207 1.735-2.4 2.318-3.457s.908-1.979 1.247-2.616c.34-.638.692-.99.977-.583.285.407.501 1.573.664 3.05.163 1.478.271 3.268.081 5.138-.19 1.871-.678 3.823-1.45 5.856-.773 2.034-1.83 4.149-2.97 5.856-1.138 1.708-2.358 3.01-3.307 4.27-.95 1.262-1.627 2.482-2.007 3.756-.379 1.275-.46 2.603.869 2.901 1.329.298 4.067-.434 6.846-1.519 2.779-1.084 5.598-2.521 8.052-3.931 2.454-1.41 4.541-2.793 6.887-4.514 2.345-1.722 4.948-3.783 7.402-5.626a246.526 246.526 0 0 1 6.75-4.867c1.994-1.396 3.675-2.562 5.193-3.904 1.518-1.342 2.874-2.86 4.094-4.338 1.22-1.478 2.304-2.915 3.063-4.406.76-1.49 1.193-3.036 1.803-4.351.61-1.316 1.397-2.4 2.061-3.173.664-.773 1.207-1.234 1.912-.976.705.259 1.573 1.235 1.993 2.306.42 1.07.392 2.236.162 4.365-.23 2.128-.664 5.219-1.396 8.038-.733 2.82-1.763 5.369-3.16 8.297-1.395 2.928-3.158 6.236-4.988 9.082-1.83 2.847-3.728 5.233-5.233 7.158a145.422 145.422 0 0 0-3.917 5.206c-1.302 1.816-2.793 3.985-3.823 5.409-1.03 1.423-1.6 2.101-.759 2.467.841.366 3.091.42 5.138-.163 2.047-.583 3.89-1.803 6.33-3.321 2.44-1.519 5.477-3.335 8.094-5.097 2.616-1.763 4.812-3.47 6.737-4.88 1.925-1.41 3.58-2.522 4.596-2.956 1.018-.433 1.397-.189 1.139 1.126s-1.153 3.7-2.44 6.52c-1.289 2.82-2.97 6.074-4.596 9.083-1.627 3.01-3.2 5.775-5.07 8.378-1.871 2.603-4.04 5.043-5.952 7.063-1.911 2.02-3.565 3.62-5.11 5.232-1.546 1.614-2.983 3.24-4.786 4.786-1.803 1.545-3.972 3.01-5.422 4.257-1.451 1.247-2.183 2.277-2.685 3.498-.501 1.22-.773 2.63-.908 3.511-.136.882-.136 1.234-.136 1.585M287.777 142.18c3.471-1.572 6.942-3.145 15.51-6.67 8.567-3.524 22.232-9.001 33.105-12.499 10.872-3.497 18.952-5.015 26.95-5.991 7.999-.976 15.915-1.41 21.338-2.061 5.422-.65 8.35-1.518 11.496-2.522 3.145-1.003 6.507-2.142 11.17-2.82 4.664-.677 10.629-.894 14.695-2.168 4.067-1.275 6.236-3.606 6.345-4.8.109-1.192-1.843-1.246-3.552-1.11-1.708.135-3.172.46-4.609.568-1.437.109-2.847 0-3.01-.786-.163-.786.921-2.25 2.277-3.47 1.355-1.218 2.98-2.192 4.606-3.166" transform="translate(-34.496 8.676)"/><path style="fill:#000;fill-opacity:0;stroke:#d14a00;stroke-width:1.00157;stroke-linecap:round;stroke-linejoin:round;stroke-miterlimit:4;stroke-dasharray:none;stroke-opacity:1" d="M314.944 97.444c2.55-2.115 5.098-4.23 7.565-5.775 2.468-1.546 4.854-2.522 7.864-3.2 3.01-.677 6.642-1.057 10.221-1.192 3.58-.136 7.104-.027 9.788-.109 2.684-.081 4.528-.352 6.398-1.491 1.87-1.139 3.769-3.145 5.53-5.016 1.763-1.87 3.39-3.606 4.53-4.446 1.139-.84 1.79-.787 1.545.271-.245 1.058-1.384 3.118-2.224 5.043a26.899 26.899 0 0 0-1.708 5.288c-.326 1.572-.434 2.928.678 3.524 1.112.596 3.444.433 6.1-.543 2.657-.976 5.64-2.765 8.568-5.178s5.802-5.45 8.46-8.026c2.656-2.576 5.096-4.69 7.4-6.832 2.306-2.142 4.475-4.311 6.237-5.613 1.763-1.301 3.118-1.735 3.687-.894.57.841.353 2.956-1.328 5.64-1.681 2.683-4.826 5.937-7.212 8.377-2.386 2.44-4.013 4.067-4.935 5.776-.922 1.708-1.139 3.498-.243 5.314.895 1.817 2.901 3.66 5.477 4.202 2.575.542 5.72-.217 8.052-1.735 2.331-1.519 3.85-3.796 5.286-5.91 1.437-2.116 2.793-4.068 3.742-5.18.95-1.112 1.492-1.383 1.058 1.22-.435 2.604-1.844 8.08-3.254 13.557" transform="translate(-34.496 8.676)"/></g><g class="eye-scream, scream" style="stroke-width:1.00157;stroke-dasharray:none" fill="none"><path style="fill:#000;fill-opacity:0;stroke:#faeb96;stroke-width:1.00157;stroke-linecap:round;stroke-linejoin:round;stroke-miterlimit:4;stroke-dasharray:none;stroke-opacity:1" d="m219.133 144.018 14.15 6.442M229.486 140.913l-6.902 12.308" transform="translate(-34.611 9.596)"/></g><g style="stroke-width:1.00157;stroke-dasharray:none" transform="translate(-34.496 8.676)"><circle style="opacity:1;mix-blend-mode:lighten;fill:#000;fill-opacity:0;stroke:#faeb96;stroke-width:1.00157;stroke-linecap:round;stroke-linejoin:round;stroke-miterlimit:4;stroke-dasharray:none;stroke-opacity:1" cx="225.834" cy="148.073" fill="none" class="eye, calm" r="11.236"/></g></g><g style="opacity:1;mix-blend-mode:lighten;stroke-width:2.51339;stroke-dasharray:none;filter:url(#c)" transform="translate(-525.447 -93.471)"><g style="stroke-width:2.51339;stroke-dasharray:none" fill="none"><path style="opacity:1;fill:azure;fill-opacity:0;stroke:#fff;stroke-width:2.51339;stroke-linecap:round;stroke-linejoin:round;stroke-miterlimit:4;stroke-dasharray:none;stroke-opacity:1" d="M683.285 308.454a55.352 55.352 0 0 1-22.94 19.112c-10.901 4.866-23.31 6.058-35.063 3.962-11.752-2.097-22.84-7.404-32.245-14.757-12.846-10.044-22.617-23.968-27.693-39.464M763.344 316.104c9.248 9.734 15.57 22.214 17.944 35.43 3.977 22.128-3.66 46.015-19.738 61.73-16.077 15.716-40.132 22.81-62.163 18.331"/><path style="opacity:1;fill:azure;fill-opacity:0;stroke:#fff;stroke-width:2.51339;stroke-linecap:round;stroke-linejoin:round;stroke-miterlimit:4;stroke-dasharray:none;stroke-opacity:1" d="M564.899 276.364c-.25 6.781-.499 13.561-.748 17.195-.249 3.634-.498 4.123-1.868 2.36-1.37-1.763-3.86-5.776-5.305-9.112-1.445-3.336-1.844-5.994-2.143-7.486-.298-1.491-.498-1.817-.847-1.22-.349.596-.847 2.115-1.17 3.96-.325 1.844-.474 4.013-.4 6.536.076 2.522.374 5.397.773 8.055.399 2.658.897 5.099 1.146 6.671.249 1.573.249 2.279-1.345.326-1.594-1.953-4.782-6.563-6.775-9.655-1.993-3.092-2.79-4.665-3.289-5.235-.498-.57-.698-.136.598 6.048 1.295 6.184 4.085 18.117 2.342 20.91-1.743 2.794-8.02-3.552-11.359-7.295-3.338-3.742-3.737-4.881-3.637-2.305.1 2.577.697 8.869 1.619 14.618.922 5.75 2.167 10.957 3.936 16.138 1.769 5.18 4.06 10.333 7.174 15.486 3.114 5.153 7.05 10.306 10.04 13.669 2.989 3.363 5.031 4.936 5.056 5.288.025.353-1.968-.515-4.185-1.6-2.217-1.085-4.658-2.387-6.85-3.96-2.192-1.573-4.135-3.417-5.157-4.15-1.022-.732-1.122-.352-.897 1.194.224 1.546.772 4.259 2.74 8.245 1.969 3.987 5.356 9.249 9.566 13.56 4.21 4.313 9.242 7.676 13.203 10.008 3.96 2.333 6.85 3.634 6.626 4.61-.225.976-3.563 1.627-6.626 1.628-3.064 0-5.854-.651-4.858.325.997.977 5.78 3.58 9.267 4.936 3.487 1.356 5.68 1.465 8.22 1.682 2.541.217 5.43.542 5.282 1.462-.15.92-3.336 2.435-6.021 3.23-2.685.797-4.87.873-3.848 1.948 1.022 1.074 5.25 3.145 11.696 4.41 6.447 1.266 15.113 1.726 21.525 1.726 6.411 0 10.568-.46 14.197 1.88 3.628 2.34 6.728 7.48 10.936 11.518 4.208 4.037 9.523 6.973 14.162 8.992 4.639 2.02 8.6 3.123 16.02 3.313 7.42.19 18.297-.534 25.718-2.512 7.42-1.979 11.385-5.212 13.769-7.252 2.384-2.04 3.189-2.887 3.993-3.733l-7.015-1.123"/></g><g style="opacity:1;mix-blend-mode:lighten;stroke-width:2.51339;stroke-dasharray:none" fill="none"><path style="opacity:1;fill:azure;fill-opacity:0;stroke:#faea96;stroke-width:2.51339;stroke-linecap:round;stroke-linejoin:round;stroke-miterlimit:4;stroke-dasharray:none;stroke-opacity:.996078" d="M703.259 438.678c3.774 5.446 7.547 10.89 9.57 15.13 2.021 4.241 2.292 7.278.99 10.64-1.3 3.361-4.175 7.048-5.612 8.892-1.437 1.844-.786 2.494.678 1.735 1.465-.76 4.393-2.278 7.105-2.874 2.711-.596 5.206-.27 7.754 1.79 2.549 2.061 5.151 5.857 7.212 8.134 2.061 2.278 3.58 3.037 3.742 1.41.162-1.626-1.031-5.639-.733-7.998.299-2.36 2.088-3.065 6.182-2.82 4.095.244 10.493 1.437 14.506 1.735 4.012.298 5.639-.299 4.88-1.166-.759-.868-3.904-2.006-7.89-3.01-3.985-1.003-8.811-1.87-13.8-4.581-4.989-2.711-10.14-7.266-14.477-12.91-4.337-5.645-7.858-12.379-11.38-19.114M645.374 442.63c-.073 2.158-.145 4.313-.317 7.1a123.077 123.077 0 0 1-1.04 10.323c-.596 4.121-1.518 8.947-2.304 12.065-.786 3.118-1.437 4.528-3.497 6.56-2.06 2.034-5.531 4.691-7.863 6.86-2.332 2.17-3.525 3.85-4.013 4.963-.487 1.112-.27 1.654.597 1.464.868-.191 2.386-1.113 4.474-1.9 2.088-.785 4.745-1.436 6.833-1.761 2.088-.326 3.606-.326 4.989.515 1.382.842 2.63 2.523 4.093 4.583 1.465 2.06 3.146 4.5 4.528 6.182 1.383 1.68 2.468 2.603 3.47 2.71 1.003.108 1.925-.597 1.627-2.602-.298-2.006-1.816-5.314-2.305-7.429-.488-2.115.054-3.037 1.112-3.444 1.058-.407 2.63-.298 4.773.109 2.142.406 4.853 1.111 7.727 1.762 2.874.65 5.91 1.247 8.188 1.654 2.278.406 3.796.623 4.853.705 1.058.08 1.654.027 1.6-.596-.055-.623-.76-1.816-3.525-3.064-2.765-1.248-7.591-2.549-11.685-3.796-4.094-1.247-7.456-2.44-10.168-4.745-2.711-2.304-4.772-5.72-5.532-10.167-.76-4.446-.217-9.923.596-14.234.814-4.311 1.898-7.456 2.409-8.97.51-1.512.447-1.393.383-1.273"/></g><g style="stroke-width:2.51339;stroke-dasharray:none"><path style="opacity:1;fill:#000;fill-opacity:0;stroke:#faffff;stroke-width:2.51339;stroke-linecap:round;stroke-linejoin:round;stroke-miterlimit:4;stroke-dasharray:none;stroke-opacity:.996078" d="M652.637 329.731c-.636-.662-1.088-2.879-2.069-5.426-.98-2.548-2.491-5.426-4.192-8.17-1.7-2.746-3.59-5.359-6.033-7.693-2.442-2.334-5.438-4.39-8.136-5.058-2.698-.668-5.1.052-8.377 1.617-3.277 1.565-7.43 3.976-11.327 6.826-3.897 2.851-7.536 6.141-10.14 9.122-2.605 2.98-4.175 5.652-4.892 8.613-.717 2.961-.58 6.212.768 9.472 1.347 3.26 3.905 6.528 6.67 9.543a76.592 76.592 0 0 0 8.802 8.21c3.066 2.433 6.226 4.536 11.331 7.447 5.105 2.912 12.154 6.631 18.656 9.712 6.502 3.08 12.455 5.521 16.986 6.92 4.531 1.4 7.64 1.758 11.046 1.826 3.406.068 7.109-.153 10.66-1.399s6.95-3.517 9.027-6.926c2.076-3.408 2.828-7.956 2.477-12.57-.352-4.615-1.808-9.297-3.396-13.116-1.588-3.819-3.308-6.775-4.448-8.708-1.14-1.933-1.699-2.843-2.286-1.174-.586 1.669-1.2 5.917-2.253 8.745-1.052 2.829-2.545 4.237-3.085 3.538-.54-.698-.127-3.506-.24-6.312-.112-2.806-.751-5.613-1.723-8.318-.97-2.705-2.275-5.31-3.898-7.64-1.623-2.33-3.565-4.387-6.022-6.797-2.457-2.41-5.428-5.171-7.792-7.189-2.365-2.017-4.122-3.289-4.791-2.794-.67.495-.248 2.756.094 4.701.342 1.945.606 3.573.677 5.003.072 1.43-.05 2.661-.203 3.937-.152 1.277-.336 2.598-.611 3.459-.276.86-.644 1.261-1.28.6z" fill="none" class="wing-scream, scream"/></g><g style="stroke-width:2.51339;stroke-dasharray:none"><path style="fill:#000;fill-opacity:0;stroke:#faffff;stroke-width:2.51339;stroke-linecap:round;stroke-linejoin:round;stroke-miterlimit:4;stroke-dasharray:none;stroke-opacity:.996078" d="M640.664 387.119c-.9.186-2.526 1.758-4.776 3.304-2.25 1.545-5.124 3.063-8.08 4.365-2.955 1.301-5.992 2.386-9.326 2.928-3.335.543-6.968.543-9.571-.433-2.603-.976-4.175-2.928-5.992-6.073-1.817-3.145-3.877-7.483-5.477-12.038-1.6-4.555-2.739-9.327-3.2-13.258-.461-3.932-.244-7.023.84-9.87 1.085-2.847 3.037-5.45 5.993-7.375 2.955-1.925 6.914-3.173 10.9-4.094a76.591 76.591 0 0 1 11.902-1.79c3.905-.27 7.7-.217 13.557.272 5.857.488 13.773 1.41 20.877 2.548 7.104 1.14 13.394 2.495 17.922 3.905 4.528 1.41 7.293 2.874 10.14 4.745 2.847 1.87 5.775 4.148 7.998 7.185s3.741 6.833 3.524 10.818c-.217 3.985-2.17 8.16-5.07 11.766-2.901 3.606-6.751 6.643-10.222 8.893-3.47 2.25-6.56 3.715-8.594 4.664-2.034.948-3.01 1.382-2.55-.326.462-1.707 2.36-5.557 3.092-8.485.732-2.928.298-4.934-.543-4.664-.84.271-2.088 2.82-3.768 5.07-1.681 2.25-3.796 4.202-6.128 5.883-2.331 1.681-4.88 3.09-7.537 4.094-2.657 1.003-5.422 1.6-8.811 2.196-3.39.597-7.402 1.193-10.493 1.519-3.09.325-5.26.38-5.531-.407-.272-.786 1.355-2.413 2.738-3.823 1.382-1.41 2.521-2.603 3.389-3.741.867-1.139 1.464-2.223 2.06-3.362.597-1.139 1.193-2.332 1.453-3.197.26-.866.183-1.405-.716-1.22z" fill="none" class="wing, calm"/></g></g><g style="opacity:1;mix-blend-mode:lighten;stroke-width:1.00157;stroke-dasharray:none;filter:url(#d)" transform="translate(-525.447 -93.471)"><g style="stroke-width:1.00157;stroke-dasharray:none" fill="none"><path style="opacity:1;fill:azure;fill-opacity:0;stroke:#fff;stroke-width:1.00157;stroke-linecap:round;stroke-linejoin:round;stroke-miterlimit:4;stroke-dasharray:none;stroke-opacity:1" d="M683.285 308.454a55.352 55.352 0 0 1-22.94 19.112c-10.901 4.866-23.31 6.058-35.063 3.962-11.752-2.097-22.84-7.404-32.245-14.757-12.846-10.044-22.617-23.968-27.693-39.464M763.344 316.104c9.248 9.734 15.57 22.214 17.944 35.43 3.977 22.128-3.66 46.015-19.738 61.73-16.077 15.716-40.132 22.81-62.163 18.331"/><path style="opacity:1;fill:azure;fill-opacity:0;stroke:#fff;stroke-width:1.00157;stroke-linecap:round;stroke-linejoin:round;stroke-miterlimit:4;stroke-dasharray:none;stroke-opacity:1" d="M564.899 276.364c-.25 6.781-.499 13.561-.748 17.195-.249 3.634-.498 4.123-1.868 2.36-1.37-1.763-3.86-5.776-5.305-9.112-1.445-3.336-1.844-5.994-2.143-7.486-.298-1.491-.498-1.817-.847-1.22-.349.596-.847 2.115-1.17 3.96-.325 1.844-.474 4.013-.4 6.536.076 2.522.374 5.397.773 8.055.399 2.658.897 5.099 1.146 6.671.249 1.573.249 2.279-1.345.326-1.594-1.953-4.782-6.563-6.775-9.655-1.993-3.092-2.79-4.665-3.289-5.235-.498-.57-.698-.136.598 6.048 1.295 6.184 4.085 18.117 2.342 20.91-1.743 2.794-8.02-3.552-11.359-7.295-3.338-3.742-3.737-4.881-3.637-2.305.1 2.577.697 8.869 1.619 14.618.922 5.75 2.167 10.957 3.936 16.138 1.769 5.18 4.06 10.333 7.174 15.486 3.114 5.153 7.05 10.306 10.04 13.669 2.989 3.363 5.031 4.936 5.056 5.288.025.353-1.968-.515-4.185-1.6-2.217-1.085-4.658-2.387-6.85-3.96-2.192-1.573-4.135-3.417-5.157-4.15-1.022-.732-1.122-.352-.897 1.194.224 1.546.772 4.259 2.74 8.245 1.969 3.987 5.356 9.249 9.566 13.56 4.21 4.313 9.242 7.676 13.203 10.008 3.96 2.333 6.85 3.634 6.626 4.61-.225.976-3.563 1.627-6.626 1.628-3.064 0-5.854-.651-4.858.325.997.977 5.78 3.58 9.267 4.936 3.487 1.356 5.68 1.465 8.22 1.682 2.541.217 5.43.542 5.282 1.462-.15.92-3.336 2.435-6.021 3.23-2.685.797-4.87.873-3.848 1.948 1.022 1.074 5.25 3.145 11.696 4.41 6.447 1.266 15.113 1.726 21.525 1.726 6.411 0 10.568-.46 14.197 1.88 3.628 2.34 6.728 7.48 10.936 11.518 4.208 4.037 9.523 6.973 14.162 8.992 4.639 2.02 8.6 3.123 16.02 3.313 7.42.19 18.297-.534 25.718-2.512 7.42-1.979 11.385-5.212 13.769-7.252 2.384-2.04 3.189-2.887 3.993-3.733l-7.015-1.123"/></g><g style="opacity:1;mix-blend-mode:lighten;stroke-width:1.00157;stroke-dasharray:none" fill="none"><path style="opacity:1;fill:azure;fill-opacity:0;stroke:#faea96;stroke-width:1.00157;stroke-linecap:round;stroke-linejoin:round;stroke-miterlimit:4;stroke-dasharray:none;stroke-opacity:.996078" d="M703.259 438.678c3.774 5.446 7.547 10.89 9.57 15.13 2.021 4.241 2.292 7.278.99 10.64-1.3 3.361-4.175 7.048-5.612 8.892-1.437 1.844-.786 2.494.678 1.735 1.465-.76 4.393-2.278 7.105-2.874 2.711-.596 5.206-.27 7.754 1.79 2.549 2.061 5.151 5.857 7.212 8.134 2.061 2.278 3.58 3.037 3.742 1.41.162-1.626-1.031-5.639-.733-7.998.299-2.36 2.088-3.065 6.182-2.82 4.095.244 10.493 1.437 14.506 1.735 4.012.298 5.639-.299 4.88-1.166-.759-.868-3.904-2.006-7.89-3.01-3.985-1.003-8.811-1.87-13.8-4.581-4.989-2.711-10.14-7.266-14.477-12.91-4.337-5.645-7.858-12.379-11.38-19.114M645.374 442.63c-.073 2.158-.145 4.313-.317 7.1a123.077 123.077 0 0 1-1.04 10.323c-.596 4.121-1.518 8.947-2.304 12.065-.786 3.118-1.437 4.528-3.497 6.56-2.06 2.034-5.531 4.691-7.863 6.86-2.332 2.17-3.525 3.85-4.013 4.963-.487 1.112-.27 1.654.597 1.464.868-.191 2.386-1.113 4.474-1.9 2.088-.785 4.745-1.436 6.833-1.761 2.088-.326 3.606-.326 4.989.515 1.382.842 2.63 2.523 4.093 4.583 1.465 2.06 3.146 4.5 4.528 6.182 1.383 1.68 2.468 2.603 3.47 2.71 1.003.108 1.925-.597 1.627-2.602-.298-2.006-1.816-5.314-2.305-7.429-.488-2.115.054-3.037 1.112-3.444 1.058-.407 2.63-.298 4.773.109 2.142.406 4.853 1.111 7.727 1.762 2.874.65 5.91 1.247 8.188 1.654 2.278.406 3.796.623 4.853.705 1.058.08 1.654.027 1.6-.596-.055-.623-.76-1.816-3.525-3.064-2.765-1.248-7.591-2.549-11.685-3.796-4.094-1.247-7.456-2.44-10.168-4.745-2.711-2.304-4.772-5.72-5.532-10.167-.76-4.446-.217-9.923.596-14.234.814-4.311 1.898-7.456 2.409-8.97.51-1.512.447-1.393.383-1.273"/></g><g style="stroke-width:1.00157;stroke-dasharray:none"><path style="opacity:1;fill:#000;fill-opacity:0;stroke:#faffff;stroke-width:1.00157;stroke-linecap:round;stroke-linejoin:round;stroke-miterlimit:4;stroke-dasharray:none;stroke-opacity:.996078" d="M652.637 329.731c-.636-.662-1.088-2.879-2.069-5.426-.98-2.548-2.491-5.426-4.192-8.17-1.7-2.746-3.59-5.359-6.033-7.693-2.442-2.334-5.438-4.39-8.136-5.058-2.698-.668-5.1.052-8.377 1.617-3.277 1.565-7.43 3.976-11.327 6.826-3.897 2.851-7.536 6.141-10.14 9.122-2.605 2.98-4.175 5.652-4.892 8.613-.717 2.961-.58 6.212.768 9.472 1.347 3.26 3.905 6.528 6.67 9.543a76.592 76.592 0 0 0 8.802 8.21c3.066 2.433 6.226 4.536 11.331 7.447 5.105 2.912 12.154 6.631 18.656 9.712 6.502 3.08 12.455 5.521 16.986 6.92 4.531 1.4 7.64 1.758 11.046 1.826 3.406.068 7.109-.153 10.66-1.399s6.95-3.517 9.027-6.926c2.076-3.408 2.828-7.956 2.477-12.57-.352-4.615-1.808-9.297-3.396-13.116-1.588-3.819-3.308-6.775-4.448-8.708-1.14-1.933-1.699-2.843-2.286-1.174-.586 1.669-1.2 5.917-2.253 8.745-1.052 2.829-2.545 4.237-3.085 3.538-.54-.698-.127-3.506-.24-6.312-.112-2.806-.751-5.613-1.723-8.318-.97-2.705-2.275-5.31-3.898-7.64-1.623-2.33-3.565-4.387-6.022-6.797-2.457-2.41-5.428-5.171-7.792-7.189-2.365-2.017-4.122-3.289-4.791-2.794-.67.495-.248 2.756.094 4.701.342 1.945.606 3.573.677 5.003.072 1.43-.05 2.661-.203 3.937-.152 1.277-.336 2.598-.611 3.459-.276.86-.644 1.261-1.28.6z" fill="none" class="wing-scream, scream"/></g><g style="stroke-width:1.00157;stroke-dasharray:none"><path style="fill:#000;fill-opacity:0;stroke:#faffff;stroke-width:1.00157;stroke-linecap:round;stroke-linejoin:round;stroke-miterlimit:4;stroke-dasharray:none;stroke-opacity:.996078" d="M640.664 387.119c-.9.186-2.526 1.758-4.776 3.304-2.25 1.545-5.124 3.063-8.08 4.365-2.955 1.301-5.992 2.386-9.326 2.928-3.335.543-6.968.543-9.571-.433-2.603-.976-4.175-2.928-5.992-6.073-1.817-3.145-3.877-7.483-5.477-12.038-1.6-4.555-2.739-9.327-3.2-13.258-.461-3.932-.244-7.023.84-9.87 1.085-2.847 3.037-5.45 5.993-7.375 2.955-1.925 6.914-3.173 10.9-4.094a76.591 76.591 0 0 1 11.902-1.79c3.905-.27 7.7-.217 13.557.272 5.857.488 13.773 1.41 20.877 2.548 7.104 1.14 13.394 2.495 17.922 3.905 4.528 1.41 7.293 2.874 10.14 4.745 2.847 1.87 5.775 4.148 7.998 7.185s3.741 6.833 3.524 10.818c-.217 3.985-2.17 8.16-5.07 11.766-2.901 3.606-6.751 6.643-10.222 8.893-3.47 2.25-6.56 3.715-8.594 4.664-2.034.948-3.01 1.382-2.55-.326.462-1.707 2.36-5.557 3.092-8.485.732-2.928.298-4.934-.543-4.664-.84.271-2.088 2.82-3.768 5.07-1.681 2.25-3.796 4.202-6.128 5.883-2.331 1.681-4.88 3.09-7.537 4.094-2.657 1.003-5.422 1.6-8.811 2.196-3.39.597-7.402 1.193-10.493 1.519-3.09.325-5.26.38-5.531-.407-.272-.786 1.355-2.413 2.738-3.823 1.382-1.41 2.521-2.603 3.389-3.741.867-1.139 1.464-2.223 2.06-3.362.597-1.139 1.193-2.332 1.453-3.197.26-.866.183-1.405-.716-1.22z" fill="none" class="wing, calm"/></g></g><g style="opacity:1;mix-blend-mode:lighten"><g fill="none"><path style="opacity:1;fill:azure;fill-opacity:0;stroke:#fff;stroke-width:1.18307;stroke-linecap:round;stroke-linejoin:round;stroke-miterlimit:4;stroke-dasharray:none;stroke-opacity:1" d="M683.285 308.454a55.352 55.352 0 0 1-22.94 19.112c-10.901 4.866-23.31 6.058-35.063 3.962-11.752-2.097-22.84-7.404-32.245-14.757-12.846-10.044-22.617-23.968-27.693-39.464" transform="translate(-525.447 -93.471)"/><path style="opacity:1;fill:azure;fill-opacity:0;stroke:#fff;stroke-width:1.24724;stroke-linecap:round;stroke-linejoin:round;stroke-miterlimit:4;stroke-dasharray:none;stroke-opacity:1" d="M763.344 316.104c9.248 9.734 15.57 22.214 17.944 35.43 3.977 22.128-3.66 46.015-19.738 61.73-16.077 15.716-40.132 22.81-62.163 18.331" transform="translate(-525.447 -93.471)"/><path style="opacity:1;fill:azure;fill-opacity:0;stroke:#fff;stroke-width:1.19568;stroke-linecap:round;stroke-linejoin:round;stroke-miterlimit:4;stroke-dasharray:none;stroke-opacity:1" d="M564.899 276.364c-.25 6.781-.499 13.561-.748 17.195-.249 3.634-.498 4.123-1.868 2.36-1.37-1.763-3.86-5.776-5.305-9.112-1.445-3.336-1.844-5.994-2.143-7.486-.298-1.491-.498-1.817-.847-1.22-.349.596-.847 2.115-1.17 3.96-.325 1.844-.474 4.013-.4 6.536.076 2.522.374 5.397.773 8.055.399 2.658.897 5.099 1.146 6.671.249 1.573.249 2.279-1.345.326-1.594-1.953-4.782-6.563-6.775-9.655-1.993-3.092-2.79-4.665-3.289-5.235-.498-.57-.698-.136.598 6.048 1.295 6.184 4.085 18.117 2.342 20.91-1.743 2.794-8.02-3.552-11.359-7.295-3.338-3.742-3.737-4.881-3.637-2.305.1 2.577.697 8.869 1.619 14.618.922 5.75 2.167 10.957 3.936 16.138 1.769 5.18 4.06 10.333 7.174 15.486 3.114 5.153 7.05 10.306 10.04 13.669 2.989 3.363 5.031 4.936 5.056 5.288.025.353-1.968-.515-4.185-1.6-2.217-1.085-4.658-2.387-6.85-3.96-2.192-1.573-4.135-3.417-5.157-4.15-1.022-.732-1.122-.352-.897 1.194.224 1.546.772 4.259 2.74 8.245 1.969 3.987 5.356 9.249 9.566 13.56 4.21 4.313 9.242 7.676 13.203 10.008 3.96 2.333 6.85 3.634 6.626 4.61-.225.976-3.563 1.627-6.626 1.628-3.064 0-5.854-.651-4.858.325.997.977 5.78 3.58 9.267 4.936 3.487 1.356 5.68 1.465 8.22 1.682 2.541.217 5.43.542 5.282 1.462-.15.92-3.336 2.435-6.021 3.23-2.685.797-4.87.873-3.848 1.948 1.022 1.074 5.25 3.145 11.696 4.41 6.447 1.266 15.113 1.726 21.525 1.726 6.411 0 10.568-.46 14.197 1.88 3.628 2.34 6.728 7.48 10.936 11.518 4.208 4.037 9.523 6.973 14.162 8.992 4.639 2.02 8.6 3.123 16.02 3.313 7.42.19 18.297-.534 25.718-2.512 7.42-1.979 11.385-5.212 13.769-7.252 2.384-2.04 3.189-2.887 3.993-3.733l-7.015-1.123" transform="translate(-525.447 -93.471)"/></g><g style="opacity:1;mix-blend-mode:lighten" fill="none"><path style="opacity:1;fill:azure;fill-opacity:0;stroke:#faea96;stroke-width:2.51339;stroke-linecap:round;stroke-linejoin:round;stroke-miterlimit:4;stroke-dasharray:none;stroke-opacity:.996078" d="M703.259 438.678c3.774 5.446 7.547 10.89 9.57 15.13 2.021 4.241 2.292 7.278.99 10.64-1.3 3.361-4.175 7.048-5.612 8.892-1.437 1.844-.786 2.494.678 1.735 1.465-.76 4.393-2.278 7.105-2.874 2.711-.596 5.206-.27 7.754 1.79 2.549 2.061 5.151 5.857 7.212 8.134 2.061 2.278 3.58 3.037 3.742 1.41.162-1.626-1.031-5.639-.733-7.998.299-2.36 2.088-3.065 6.182-2.82 4.095.244 10.493 1.437 14.506 1.735 4.012.298 5.639-.299 4.88-1.166-.759-.868-3.904-2.006-7.89-3.01-3.985-1.003-8.811-1.87-13.8-4.581-4.989-2.711-10.14-7.266-14.477-12.91-4.337-5.645-7.858-12.379-11.38-19.114M645.374 442.63c-.073 2.158-.145 4.313-.317 7.1a123.077 123.077 0 0 1-1.04 10.323c-.596 4.121-1.518 8.947-2.304 12.065-.786 3.118-1.437 4.528-3.497 6.56-2.06 2.034-5.531 4.691-7.863 6.86-2.332 2.17-3.525 3.85-4.013 4.963-.487 1.112-.27 1.654.597 1.464.868-.191 2.386-1.113 4.474-1.9 2.088-.785 4.745-1.436 6.833-1.761 2.088-.326 3.606-.326 4.989.515 1.382.842 2.63 2.523 4.093 4.583 1.465 2.06 3.146 4.5 4.528 6.182 1.383 1.68 2.468 2.603 3.47 2.71 1.003.108 1.925-.597 1.627-2.602-.298-2.006-1.816-5.314-2.305-7.429-.488-2.115.054-3.037 1.112-3.444 1.058-.407 2.63-.298 4.773.109 2.142.406 4.853 1.111 7.727 1.762 2.874.65 5.91 1.247 8.188 1.654 2.278.406 3.796.623 4.853.705 1.058.08 1.654.027 1.6-.596-.055-.623-.76-1.816-3.525-3.064-2.765-1.248-7.591-2.549-11.685-3.796-4.094-1.247-7.456-2.44-10.168-4.745-2.711-2.304-4.772-5.72-5.532-10.167-.76-4.446-.217-9.923.596-14.234.814-4.311 1.898-7.456 2.409-8.97.51-1.512.447-1.393.383-1.273" transform="translate(-525.447 -93.471)"/></g><path style="opacity:1;fill:#000;fill-opacity:0;stroke:#faffff;stroke-width:1.37953;stroke-linecap:round;stroke-linejoin:round;stroke-miterlimit:4;stroke-dasharray:none;stroke-opacity:.996078" d="M652.637 329.731c-.636-.662-1.088-2.879-2.069-5.426-.98-2.548-2.491-5.426-4.192-8.17-1.7-2.746-3.59-5.359-6.033-7.693-2.442-2.334-5.438-4.39-8.136-5.058-2.698-.668-5.1.052-8.377 1.617-3.277 1.565-7.43 3.976-11.327 6.826-3.897 2.851-7.536 6.141-10.14 9.122-2.605 2.98-4.175 5.652-4.892 8.613-.717 2.961-.58 6.212.768 9.472 1.347 3.26 3.905 6.528 6.67 9.543a76.592 76.592 0 0 0 8.802 8.21c3.066 2.433 6.226 4.536 11.331 7.447 5.105 2.912 12.154 6.631 18.656 9.712 6.502 3.08 12.455 5.521 16.986 6.92 4.531 1.4 7.64 1.758 11.046 1.826 3.406.068 7.109-.153 10.66-1.399s6.95-3.517 9.027-6.926c2.076-3.408 2.828-7.956 2.477-12.57-.352-4.615-1.808-9.297-3.396-13.116-1.588-3.819-3.308-6.775-4.448-8.708-1.14-1.933-1.699-2.843-2.286-1.174-.586 1.669-1.2 5.917-2.253 8.745-1.052 2.829-2.545 4.237-3.085 3.538-.54-.698-.127-3.506-.24-6.312-.112-2.806-.751-5.613-1.723-8.318-.97-2.705-2.275-5.31-3.898-7.64-1.623-2.33-3.565-4.387-6.022-6.797-2.457-2.41-5.428-5.171-7.792-7.189-2.365-2.017-4.122-3.289-4.791-2.794-.67.495-.248 2.756.094 4.701.342 1.945.606 3.573.677 5.003.072 1.43-.05 2.661-.203 3.937-.152 1.277-.336 2.598-.611 3.459-.276.86-.644 1.261-1.28.6z" fill="none" transform="translate(-525.447 -93.471)" class="wing-scream, scream"/><path style="fill:#000;fill-opacity:0;stroke:#faffff;stroke-width:1.37953;stroke-linecap:round;stroke-linejoin:round;stroke-miterlimit:4;stroke-dasharray:none;stroke-opacity:.996078" d="M640.664 387.119c-.9.186-2.526 1.758-4.776 3.304-2.25 1.545-5.124 3.063-8.08 4.365-2.955 1.301-5.992 2.386-9.326 2.928-3.335.543-6.968.543-9.571-.433-2.603-.976-4.175-2.928-5.992-6.073-1.817-3.145-3.877-7.483-5.477-12.038-1.6-4.555-2.739-9.327-3.2-13.258-.461-3.932-.244-7.023.84-9.87 1.085-2.847 3.037-5.45 5.993-7.375 2.955-1.925 6.914-3.173 10.9-4.094a76.591 76.591 0 0 1 11.902-1.79c3.905-.27 7.7-.217 13.557.272 5.857.488 13.773 1.41 20.877 2.548 7.104 1.14 13.394 2.495 17.922 3.905 4.528 1.41 7.293 2.874 10.14 4.745 2.847 1.87 5.775 4.148 7.998 7.185s3.741 6.833 3.524 10.818c-.217 3.985-2.17 8.16-5.07 11.766-2.901 3.606-6.751 6.643-10.222 8.893-3.47 2.25-6.56 3.715-8.594 4.664-2.034.948-3.01 1.382-2.55-.326.462-1.707 2.36-5.557 3.092-8.485.732-2.928.298-4.934-.543-4.664-.84.271-2.088 2.82-3.768 5.07-1.681 2.25-3.796 4.202-6.128 5.883-2.331 1.681-4.88 3.09-7.537 4.094-2.657 1.003-5.422 1.6-8.811 2.196-3.39.597-7.402 1.193-10.493 1.519-3.09.325-5.26.38-5.531-.407-.272-.786 1.355-2.413 2.738-3.823 1.382-1.41 2.521-2.603 3.389-3.741.867-1.139 1.464-2.223 2.06-3.362.597-1.139 1.193-2.332 1.453-3.197.26-.866.183-1.405-.716-1.22z" fill="none" transform="translate(-525.447 -93.471)" class="wing, calm"/></g></g></svg>