<?xml version="1.0" encoding="UTF-8"?>
<svg xmlns="http://www.w3.org/2000/svg" xmlns:xlink="http://www.w3.org/1999/xlink" viewBox="0 0 40 40" width="40px" height="40px">
<g id="surface57563991">
<path style=" stroke:none;fill-rule:nonzero;fill:rgb(100%,30.588236%,65.490198%);fill-opacity:1;" d="M 27.683594 20.75 L 27.46875 18.605469 L 27.292969 18.566406 C 25.734375 18.222656 24.335938 17.414062 23.242188 16.222656 L 23.121094 16.089844 L 21.152344 16.976562 L 19.878906 14.773438 L 21.625 13.515625 L 21.570312 13.34375 C 21.328125 12.582031 21.207031 11.796875 21.207031 11 C 21.207031 10.203125 21.328125 9.414062 21.570312 8.65625 L 21.625 8.484375 L 19.878906 7.226562 L 21.152344 5.023438 L 23.121094 5.910156 L 23.242188 5.777344 C 24.332031 4.585938 25.734375 3.777344 27.292969 3.433594 L 27.46875 3.394531 L 27.683594 1.25 L 30.230469 1.25 L 30.445312 3.394531 L 30.621094 3.433594 C 32.183594 3.777344 33.582031 4.585938 34.671875 5.777344 L 34.792969 5.910156 L 36.765625 5.023438 L 38.039062 7.226562 L 36.289062 8.484375 L 36.34375 8.65625 C 36.585938 9.417969 36.707031 10.203125 36.707031 11 C 36.707031 11.796875 36.585938 12.585938 36.34375 13.34375 L 36.289062 13.515625 L 38.039062 14.773438 L 36.765625 16.976562 L 34.792969 16.089844 L 34.671875 16.222656 C 33.582031 17.414062 32.183594 18.222656 30.621094 18.566406 L 30.445312 18.605469 L 30.230469 20.75 Z M 28.957031 6.75 C 26.613281 6.75 24.707031 8.65625 24.707031 11 C 24.707031 13.34375 26.613281 15.25 28.957031 15.25 C 31.300781 15.25 33.207031 13.34375 33.207031 11 C 33.207031 8.65625 31.300781 6.75 28.957031 6.75 Z M 28.957031 6.75 "/>
<path style=" stroke:none;fill-rule:nonzero;fill:rgb(82.745099%,1.568628%,41.960785%);fill-opacity:1;" d="M 30.003906 1.5 L 30.179688 3.238281 L 30.214844 3.601562 L 30.570312 3.679688 C 32.078125 4.007812 33.433594 4.792969 34.488281 5.945312 L 34.730469 6.214844 L 35.0625 6.066406 L 36.660156 5.34375 L 37.707031 7.15625 L 36.292969 8.175781 L 35.996094 8.386719 L 36.105469 8.734375 C 36.339844 9.46875 36.457031 10.230469 36.457031 11 C 36.457031 11.769531 36.339844 12.53125 36.105469 13.265625 L 35.996094 13.613281 L 36.292969 13.824219 L 37.707031 14.84375 L 36.660156 16.65625 L 35.0625 15.933594 L 34.730469 15.785156 L 34.488281 16.054688 C 33.433594 17.207031 32.078125 17.992188 30.570312 18.320312 L 30.214844 18.398438 L 30.179688 18.761719 L 30.003906 20.5 L 27.910156 20.5 L 27.734375 18.761719 L 27.699219 18.398438 L 27.34375 18.320312 C 25.835938 17.992188 24.484375 17.207031 23.429688 16.054688 L 23.183594 15.785156 L 22.851562 15.933594 L 21.253906 16.65625 L 20.207031 14.84375 L 21.625 13.824219 L 21.917969 13.613281 L 21.808594 13.265625 C 21.574219 12.53125 21.457031 11.769531 21.457031 11 C 21.457031 10.230469 21.574219 9.46875 21.808594 8.734375 L 21.917969 8.386719 L 21.625 8.175781 L 20.207031 7.15625 L 21.253906 5.34375 L 22.851562 6.066406 L 23.183594 6.214844 L 23.429688 5.945312 C 24.484375 4.792969 25.835938 4.007812 27.34375 3.679688 L 27.699219 3.601562 L 27.734375 3.238281 L 27.910156 1.5 L 30.003906 1.5 M 28.957031 15.5 C 31.4375 15.5 33.457031 13.480469 33.457031 11 C 33.457031 8.519531 31.4375 6.5 28.957031 6.5 C 26.476562 6.5 24.457031 8.519531 24.457031 11 C 24.457031 13.480469 26.476562 15.5 28.957031 15.5 M 30.457031 1 L 27.457031 1 L 27.238281 3.191406 C 25.597656 3.550781 24.152344 4.414062 23.058594 5.609375 L 21.046875 4.699219 L 19.546875 7.300781 L 21.332031 8.582031 C 21.089844 9.34375 20.957031 10.15625 20.957031 11 C 20.957031 11.84375 21.089844 12.65625 21.332031 13.417969 L 19.546875 14.699219 L 21.046875 17.300781 L 23.058594 16.390625 C 24.152344 17.585938 25.597656 18.449219 27.238281 18.808594 L 27.457031 21 L 30.457031 21 L 30.675781 18.808594 C 32.316406 18.449219 33.761719 17.585938 34.855469 16.390625 L 36.867188 17.300781 L 38.367188 14.699219 L 36.582031 13.417969 C 36.824219 12.65625 36.957031 11.84375 36.957031 11 C 36.957031 10.15625 36.824219 9.34375 36.582031 8.582031 L 38.367188 7.300781 L 36.867188 4.699219 L 34.855469 5.609375 C 33.761719 4.414062 32.316406 3.550781 30.675781 3.191406 Z M 28.957031 15 C 26.75 15 24.957031 13.210938 24.957031 11 C 24.957031 8.789062 26.75 7 28.957031 7 C 31.167969 7 32.957031 8.789062 32.957031 11 C 32.957031 13.210938 31.167969 15 28.957031 15 Z M 28.957031 15 "/>
<path style=" stroke:none;fill-rule:nonzero;fill:rgb(86.274511%,83.529413%,94.901961%);fill-opacity:1;" d="M 11.683594 38.75 L 11.359375 35.5 L 11.1875 35.457031 C 9.527344 35.039062 8.023438 34.167969 6.832031 32.945312 L 6.707031 32.820312 L 3.734375 34.160156 L 1.960938 31.089844 L 4.613281 29.183594 L 4.5625 29.015625 C 4.328125 28.179688 4.207031 27.332031 4.207031 26.5 C 4.207031 25.667969 4.328125 24.820312 4.5625 23.984375 L 4.609375 23.816406 L 1.960938 21.910156 L 3.734375 18.839844 L 6.707031 20.179688 L 6.832031 20.054688 C 8.019531 18.832031 9.527344 17.960938 11.1875 17.542969 L 11.359375 17.5 L 11.683594 14.25 L 15.230469 14.25 L 15.554688 17.5 L 15.726562 17.542969 C 17.386719 17.960938 18.894531 18.832031 20.085938 20.054688 L 20.207031 20.179688 L 23.179688 18.839844 L 24.953125 21.910156 L 22.304688 23.816406 L 22.351562 23.984375 C 22.589844 24.820312 22.707031 25.667969 22.707031 26.5 C 22.707031 27.332031 22.589844 28.179688 22.351562 29.015625 L 22.304688 29.183594 L 24.953125 31.089844 L 23.179688 34.160156 L 20.207031 32.820312 L 20.085938 32.945312 C 18.894531 34.167969 17.386719 35.039062 15.726562 35.457031 L 15.558594 35.5 L 15.230469 38.75 Z M 13.457031 21.75 C 10.839844 21.75 8.707031 23.882812 8.707031 26.5 C 8.707031 29.117188 10.839844 31.25 13.457031 31.25 C 16.078125 31.25 18.207031 29.117188 18.207031 26.5 C 18.207031 23.882812 16.078125 21.75 13.457031 21.75 Z M 13.457031 21.75 "/>
<path style=" stroke:none;fill-rule:nonzero;fill:rgb(54.509807%,45.882353%,63.137257%);fill-opacity:1;" d="M 15.003906 14.5 L 15.289062 17.347656 L 15.324219 17.699219 L 15.664062 17.785156 C 17.28125 18.191406 18.746094 19.039062 19.90625 20.230469 L 20.148438 20.480469 L 20.46875 20.335938 L 23.074219 19.160156 L 24.625 21.839844 L 22.300781 23.511719 L 22.015625 23.714844 L 22.113281 24.054688 C 22.339844 24.867188 22.457031 25.691406 22.457031 26.5 C 22.457031 27.3125 22.339844 28.136719 22.113281 28.949219 L 22.015625 29.285156 L 22.300781 29.492188 L 24.625 31.160156 L 23.074219 33.839844 L 20.46875 32.664062 L 20.148438 32.519531 L 19.90625 32.769531 C 18.746094 33.960938 17.28125 34.808594 15.664062 35.214844 L 15.324219 35.300781 L 15.289062 35.652344 L 15.003906 38.5 L 11.910156 38.5 L 11.625 35.652344 L 11.589844 35.300781 L 11.25 35.214844 C 9.632812 34.808594 8.167969 33.960938 7.007812 32.769531 L 6.765625 32.519531 L 6.445312 32.664062 L 3.839844 33.839844 L 2.292969 31.160156 L 4.613281 29.488281 L 4.898438 29.285156 L 4.804688 28.949219 C 4.574219 28.132812 4.457031 27.308594 4.457031 26.5 C 4.457031 25.691406 4.574219 24.867188 4.804688 24.050781 L 4.898438 23.714844 L 4.613281 23.511719 L 2.292969 21.839844 L 3.839844 19.160156 L 6.445312 20.335938 L 6.765625 20.480469 L 7.007812 20.226562 C 8.167969 19.035156 9.632812 18.191406 11.25 17.785156 L 11.589844 17.699219 L 11.625 17.347656 L 11.910156 14.5 L 15.003906 14.5 M 13.457031 31.5 C 16.214844 31.5 18.457031 29.257812 18.457031 26.5 C 18.457031 23.742188 16.214844 21.5 13.457031 21.5 C 10.699219 21.5 8.457031 23.742188 8.457031 26.5 C 8.457031 29.257812 10.699219 31.5 13.457031 31.5 M 15.457031 14 L 11.457031 14 L 11.128906 17.300781 C 9.398438 17.738281 7.855469 18.640625 6.652344 19.878906 L 3.632812 18.519531 L 1.632812 21.980469 L 4.324219 23.914062 C 4.089844 24.738281 3.957031 25.601562 3.957031 26.5 C 3.957031 27.398438 4.089844 28.261719 4.324219 29.085938 L 1.632812 31.019531 L 3.632812 34.480469 L 6.652344 33.121094 C 7.855469 34.359375 9.398438 35.261719 11.128906 35.699219 L 11.457031 39 L 15.457031 39 L 15.789062 35.699219 C 17.515625 35.261719 19.058594 34.359375 20.265625 33.121094 L 23.28125 34.480469 L 25.28125 31.019531 L 22.59375 29.085938 C 22.824219 28.261719 22.957031 27.398438 22.957031 26.5 C 22.957031 25.601562 22.824219 24.738281 22.59375 23.914062 L 25.28125 21.980469 L 23.28125 18.519531 L 20.265625 19.878906 C 19.058594 18.640625 17.515625 17.738281 15.789062 17.300781 Z M 13.457031 31 C 10.972656 31 8.957031 28.984375 8.957031 26.5 C 8.957031 24.015625 10.972656 22 13.457031 22 C 15.941406 22 17.957031 24.015625 17.957031 26.5 C 17.957031 28.984375 15.941406 31 13.457031 31 Z M 13.457031 31 "/>
</g>
</svg>
